{
  "accessors": [
    {
      "bufferView": 2,
      "componentType": 5126,
      "count": 1020,
      "max": [
        0.552603006362915,
        0.5564169883728027,
        1.5934170484542847
      ],
      "min": [
        -0.5245500206947327,
        -0.4300900101661682,
        -0.20328399538993835
      ],
      "type": "VEC3"
    },
    {
      "bufferView": 2,
      "byteOffset": 12240,
      "componentType": 5126,
      "count": 1020,
      "max": [
        0.9937186241149902,
        0.9799174070358276,
        0.9951511025428772
      ],
      "min": [
        -0.9989131093025208,
        -0.9988662004470825,
        -0.9845141768455505
      ],
      "type": "VEC3"
    },
    {
      "bufferView": 1,
      "componentType": 5126,
      "count": 1020,
      "max": [
        0.97114098072052,
        0.9875349998474121
      ],
      "min": [
        0.016614999622106552,
        0.029498999938368797
      ],
      "type": "VEC2"
    },
    {
      "bufferView": 0,
      "componentType": 5125,
      "count": 1443,
      "type": "SCALAR"
    },
    {
      "bufferView": 2,
      "byteOffset": 24480,
      "componentType": 5126,
      "count": 1910,
      "max": [
        0.5209580063819885,
        0.34804201126098633,
        1.2771780490875244
      ],
      "min": [
        -0.5209580063819885,
        -0.3682610094547272,
        -1.6378190517425537
      ],
      "type": "VEC3"
    },
    {
      "bufferView": 2,
      "byteOffset": 47400,
      "componentType": 5126,
      "count": 1910,
      "max": [
        0.9981116652488708,
        0.9902761578559875,
        1.0
      ],
      "min": [
        -0.9981116652488708,
        -0.9829889535903931,
        -1.0
      ],
      "type": "VEC3"
    },
    {
      "bufferView": 1,
      "byteOffset": 8160,
      "componentType": 5126,
      "count": 1910,
      "max": [
        0.9922710061073303,
        0.9853339791297913
      ],
      "min": [
        0.005994999781250954,
        0.012655000202357769
      ],
      "type": "VEC2"
    },
    {
      "bufferView": 0,
      "byteOffset": 5772,
      "componentType": 5125,
      "count": 2874,
      "type": "SCALAR"
    }
  ],
  "asset": {
    "extras": {
      "author": "micaelsampaio (https://sketchfab.com/micaelsampaio)",
      "license": "CC-BY-4.0 (http://creativecommons.org/licenses/by/4.0/)",
      "source": "https://sketchfab.com/3d-models/low-poly-little-girl-30e234683aa343798c50438af550d863",
      "title": "Low Poly Little Girl"
    },
    "generator": "Sketchfab-12.68.0",
    "version": "2.0"
  },
  "bufferViews": [
    {
      "buffer": 0,
      "byteLength": 17268,
      "name": "floatBufferViews",
      "target": 34963
    },
    {
      "buffer": 0,
      "byteLength": 23440,
      "byteOffset": 17268,
      "byteStride": 8,
      "name": "floatBufferViews",
      "target": 34962
    },
    {
      "buffer": 0,
      "byteLength": 70320,
      "byteOffset": 40708,
      "byteStride": 12,
      "name": "floatBufferViews",
      "target": 34962
    }
  ],
  "buffers": [
    {
      "byteLength": 111028,
      "uri": "scene.bin"
    }
  ],
  "extensionsUsed": [
    "KHR_materials_unlit"
  ],
  "images": [
    {
      "uri": "textures/Material_baseColor.png"
    },
    {
      "uri": "textures/hair_baseColor.png"
    }
  ],
  "materials": [
    {
      "doubleSided": true,
      "extensions": {
        "KHR_materials_unlit": {}
      },
      "name": "Material",
      "pbrMetallicRoughness": {
        "baseColorTexture": {
          "index": 0
        },
        "metallicFactor": 0.0
      }
    },
    {
      "doubleSided": true,
      "extensions": {
        "KHR_materials_unlit": {}
      },
      "name": "hair",
      "pbrMetallicRoughness": {
        "baseColorTexture": {
          "index": 1
        },
        "metallicFactor": 0.0
      }
    }
  ],
  "meshes": [
    {
      "name": "Object_0",
      "primitives": [
        {
          "attributes": {
            "NORMAL": 1,
            "POSITION": 0,
            "TEXCOORD_0": 2
          },
          "indices": 3,
          "material": 1,
          "mode": 4
        }
      ]
    },
    {
      "name": "Object_1",
      "primitives": [
        {
          "attributes": {
            "NORMAL": 5,
            "POSITION": 4,
            "TEXCOORD_0": 6
          },
          "indices": 7,
          "material": 0,
          "mode": 4
        }
      ]
    }
  ],
  "nodes": [
    {
      "children": [
        1
      ],
      "matrix": [
        1.0,
        0.0,
        0.0,
        0.0,
        0.0,
        2.220446049250313e-16,
        -1.0,
        0.0,
        0.0,
        1.0,
        2.220446049250313e-16,
        0.0,
        0.0,
        0.0,
        0.0,
        1.0
      ],
      "name": "Sketchfab_model"
    },
    {
      "children": [
        2,
        3
      ],
      "name": "b34fbbd0a5d241a3926ec34beba8c41e.obj.cleaner.materialmerger.gles"
    },
    {
      "mesh": 0,
      "name": "Object_2"
    },
    {
      "mesh": 1,
      "name": "Object_3"
    }
  ],
  "samplers": [
    {
      "magFilter": 9729,
      "minFilter": 9987,
      "wrapS": 10497,
      "wrapT": 10497
    }
  ],
  "scene": 0,
  "scenes": [
    {
      "name": "Sketchfab_Scene",
      "nodes": [
        0
      ]
    }
  ],
  "textures": [
    {
      "sampler": 0,
      "source": 0
    },
    {
      "sampler": 0,
      "source": 1
    }
  ]
}
